<svg width="245" height="75" viewBox="0 0 245 75" fill="none" xmlns="http://www.w3.org/2000/svg">
<rect width="245" height="75" rx="30" fill="black"/>
<path d="M57.2395 40.7244C62.4382 37.8623 66.3792 35.6814 66.7189 35.5118C67.8055 34.9325 68.9277 33.3989 66.7189 32.2077C66.0057 31.833 62.1659 29.7201 57.2395 26.9951L50.4102 33.9107L57.2395 40.7242V40.7244Z" fill="#FFD900"/>
<path d="M50.4101 33.9108L28.6646 55.8856C29.175 55.9533 29.7512 55.8176 30.4306 55.4431C31.8569 54.6603 46.9776 46.3808 57.2395 40.7261L50.4101 33.9108Z" fill="#F43249"/>
<path d="M50.4102 33.9107L57.2396 27.0292C57.2396 27.0292 31.9602 13.1963 30.4307 12.3798C29.8545 12.0376 29.2087 11.9359 28.6309 12.0376L50.4102 33.9107Z" fill="#00EE76"/>
<path d="M50.4102 33.9099L28.6309 12.0367C27.747 12.2416 27 13.0247 27 14.626V53.2954C27 54.7611 27.578 55.8167 28.6647 55.9185L50.4102 33.9099Z" fill="#00D3FF"/>
<path d="M89.6558 34.3198H96.2231V43.2798C95.1489 43.6297 94.1154 43.8779 93.1226 44.0244C92.1379 44.1709 91.0718 44.2441 89.9243 44.2441C87.2225 44.2441 85.1392 43.4466 83.6743 41.8516C82.2095 40.2484 81.4771 37.9901 81.4771 35.0767C81.4771 32.2039 82.3031 29.9578 83.9551 28.3384C85.6071 26.7108 87.8817 25.897 90.7788 25.897C92.6424 25.897 94.4084 26.255 96.0767 26.9712L95.0513 29.4004C93.6027 28.7331 92.1541 28.3994 90.7056 28.3994C88.8013 28.3994 87.2957 28.9976 86.189 30.1938C85.0822 31.3901 84.5288 33.0259 84.5288 35.1011C84.5288 37.2821 85.0252 38.9422 86.0181 40.0815C87.019 41.2127 88.4554 41.7783 90.3271 41.7783C91.2712 41.7783 92.2803 41.6603 93.3545 41.4243V36.8223H89.6558V34.3198ZM112.19 37.2251C112.19 39.4305 111.624 41.1517 110.493 42.3887C109.362 43.6257 107.787 44.2441 105.769 44.2441C104.508 44.2441 103.393 43.9593 102.424 43.3896C101.456 42.82 100.711 42.0021 100.19 40.936C99.6696 39.87 99.4092 38.633 99.4092 37.2251C99.4092 35.036 99.9707 33.327 101.094 32.0981C102.217 30.8693 103.8 30.2549 105.842 30.2549C107.795 30.2549 109.342 30.8856 110.481 32.147C111.62 33.4002 112.19 35.0929 112.19 37.2251ZM102.363 37.2251C102.363 40.342 103.515 41.9004 105.818 41.9004C108.097 41.9004 109.236 40.342 109.236 37.2251C109.236 34.1408 108.088 32.5986 105.793 32.5986C104.589 32.5986 103.714 32.9974 103.169 33.7949C102.632 34.5924 102.363 35.7358 102.363 37.2251ZM127.473 37.2251C127.473 39.4305 126.908 41.1517 125.776 42.3887C124.645 43.6257 123.07 44.2441 121.052 44.2441C119.791 44.2441 118.676 43.9593 117.708 43.3896C116.739 42.82 115.994 42.0021 115.474 40.936C114.953 39.87 114.692 38.633 114.692 37.2251C114.692 35.036 115.254 33.327 116.377 32.0981C117.5 30.8693 119.083 30.2549 121.125 30.2549C123.079 30.2549 124.625 30.8856 125.764 32.147C126.903 33.4002 127.473 35.0929 127.473 37.2251ZM117.646 37.2251C117.646 40.342 118.798 41.9004 121.101 41.9004C123.38 41.9004 124.519 40.342 124.519 37.2251C124.519 34.1408 123.372 32.5986 121.077 32.5986C119.872 32.5986 118.997 32.9974 118.452 33.7949C117.915 34.5924 117.646 35.7358 117.646 37.2251ZM142.183 30.499V32.0737L139.875 32.501C140.087 32.7858 140.262 33.1357 140.4 33.5508C140.539 33.9658 140.608 34.4053 140.608 34.8691C140.608 36.2607 140.128 37.3553 139.167 38.1528C138.207 38.9504 136.885 39.3491 135.2 39.3491C134.769 39.3491 134.378 39.3166 134.028 39.2515C133.41 39.634 133.101 40.0815 133.101 40.5942C133.101 40.9035 133.243 41.1354 133.528 41.29C133.821 41.4447 134.354 41.522 135.127 41.522H137.483C138.972 41.522 140.103 41.8394 140.876 42.4741C141.65 43.1089 142.036 44.0244 142.036 45.2207C142.036 46.7507 141.405 47.9307 140.144 48.7607C138.883 49.5908 137.06 50.0059 134.675 50.0059C132.836 50.0059 131.432 49.6803 130.464 49.0293C129.495 48.3783 129.011 47.4505 129.011 46.2461C129.011 45.416 129.272 44.7161 129.792 44.1465C130.321 43.585 131.058 43.1943 132.002 42.9746C131.619 42.8118 131.302 42.5514 131.05 42.1934C130.806 41.8271 130.684 41.4447 130.684 41.0459C130.684 40.5413 130.826 40.1141 131.111 39.7642C131.396 39.4142 131.819 39.0684 132.38 38.7266C131.681 38.4255 131.111 37.9372 130.671 37.2617C130.24 36.5781 130.024 35.7806 130.024 34.8691C130.024 33.4043 130.484 32.269 131.404 31.4634C132.332 30.6577 133.65 30.2549 135.359 30.2549C135.741 30.2549 136.14 30.2834 136.555 30.3403C136.978 30.3892 137.296 30.4421 137.507 30.499H142.183ZM131.575 46.0996C131.575 46.7181 131.851 47.1942 132.405 47.5278C132.966 47.8615 133.752 48.0283 134.761 48.0283C136.323 48.0283 137.487 47.8045 138.252 47.3569C139.017 46.9093 139.399 46.3153 139.399 45.5747C139.399 44.9888 139.188 44.5697 138.765 44.3174C138.35 44.0732 137.572 43.9512 136.433 43.9512H134.26C133.438 43.9512 132.783 44.1424 132.295 44.5249C131.815 44.9155 131.575 45.4404 131.575 46.0996ZM132.808 34.8691C132.808 35.7155 133.023 36.3665 133.455 36.8223C133.894 37.278 134.521 37.5059 135.334 37.5059C136.995 37.5059 137.825 36.6188 137.825 34.8447C137.825 33.9658 137.617 33.2904 137.202 32.8184C136.795 32.3382 136.173 32.0981 135.334 32.0981C134.504 32.0981 133.874 32.3341 133.442 32.8062C133.019 33.2782 132.808 33.9658 132.808 34.8691ZM147.566 44H144.697V25.0059H147.566V44ZM157.576 44.2441C155.476 44.2441 153.832 43.6338 152.644 42.4131C151.464 41.1842 150.874 39.4956 150.874 37.3472C150.874 35.1418 151.423 33.4084 152.522 32.147C153.621 30.8856 155.13 30.2549 157.051 30.2549C158.833 30.2549 160.241 30.7961 161.274 31.8784C162.308 32.9608 162.825 34.45 162.825 36.3462V37.8965H153.828C153.869 39.2067 154.223 40.2158 154.89 40.9238C155.557 41.6237 156.497 41.9736 157.71 41.9736C158.507 41.9736 159.248 41.9004 159.932 41.7539C160.623 41.5993 161.364 41.347 162.153 40.9971V43.3286C161.453 43.6623 160.745 43.8983 160.029 44.0366C159.313 44.175 158.495 44.2441 157.576 44.2441ZM157.051 32.4277C156.139 32.4277 155.407 32.7166 154.854 33.2944C154.308 33.8722 153.983 34.7145 153.877 35.8213H160.005C159.989 34.7064 159.72 33.8641 159.199 33.2944C158.678 32.7166 157.962 32.4277 157.051 32.4277ZM184.7 31.5488C184.7 33.4124 184.089 34.8407 182.869 35.8335C181.648 36.8263 179.91 37.3228 177.656 37.3228H175.801V44H172.883V26.1533H178.022C180.252 26.1533 181.921 26.609 183.027 27.5205C184.142 28.432 184.7 29.7747 184.7 31.5488ZM175.801 34.8691H177.351C178.848 34.8691 179.947 34.6087 180.647 34.0879C181.347 33.5671 181.697 32.7533 181.697 31.6465C181.697 30.6211 181.383 29.8561 180.757 29.3516C180.13 28.847 179.154 28.5947 177.827 28.5947H175.801V34.8691ZM190.828 44H187.959V25.0059H190.828V44ZM203.389 44L202.815 42.1201H202.717C202.066 42.9421 201.411 43.5036 200.752 43.8047C200.093 44.0977 199.246 44.2441 198.213 44.2441C196.886 44.2441 195.849 43.8861 195.1 43.1699C194.36 42.4538 193.989 41.4406 193.989 40.1304C193.989 38.7388 194.506 37.689 195.54 36.981C196.573 36.2729 198.148 35.8864 200.264 35.8213L202.595 35.748V35.0278C202.595 34.1652 202.392 33.5223 201.985 33.0991C201.586 32.6678 200.964 32.4521 200.117 32.4521C199.425 32.4521 198.762 32.5539 198.127 32.7573C197.493 32.9608 196.882 33.2008 196.296 33.4775L195.369 31.4268C196.101 31.0443 196.903 30.7554 197.773 30.5601C198.644 30.3566 199.466 30.2549 200.239 30.2549C201.956 30.2549 203.25 30.6292 204.121 31.3779C205 32.1266 205.439 33.3026 205.439 34.9058V44H203.389ZM199.116 42.0469C200.158 42.0469 200.992 41.758 201.619 41.1802C202.253 40.5942 202.571 39.7764 202.571 38.7266V37.5547L200.837 37.6279C199.486 37.6768 198.502 37.9046 197.883 38.3115C197.273 38.7103 196.968 39.3247 196.968 40.1548C196.968 40.757 197.147 41.2249 197.505 41.5586C197.863 41.8841 198.4 42.0469 199.116 42.0469ZM207.393 30.499H210.518L213.264 38.1528C213.679 39.2433 213.956 40.2687 214.094 41.229H214.192C214.265 40.7814 214.399 40.2402 214.595 39.6055C214.79 38.9626 215.824 35.9271 217.695 30.499H220.796L215.022 45.7944C213.972 48.6021 212.222 50.0059 209.773 50.0059C209.138 50.0059 208.52 49.9367 207.917 49.7983V47.5278C208.349 47.6255 208.841 47.6743 209.395 47.6743C210.778 47.6743 211.75 46.8727 212.312 45.2695L212.812 44L207.393 30.499Z" fill="white"/>
</svg>
