<svg width="214" height="214" viewBox="0 0 214 214" fill="none" xmlns="http://www.w3.org/2000/svg">
<circle cx="107" cy="107" r="107" fill="#F4F5F5"/>
<path d="M35.297 120.884C34.5879 120.397 33.5584 119.477 32.2153 118.124L16.868 102.557V118.351C16.868 119.181 17.2976 119.745 18.1566 120.04C17.5566 121.132 16.7589 121.674 15.7499 121.674C14.1068 121.674 13.2886 120.603 13.2886 118.46V83.9967C13.2886 83.1315 12.8591 82.5479 12 82.2457C12.5591 81.1539 13.3431 80.6115 14.3522 80.6115C16.0294 80.6115 16.8748 81.6827 16.8748 83.8251V100.01L32.7812 83.3169C33.7902 82.2663 34.6016 81.5522 35.2152 81.1745C35.8288 80.7969 36.4765 80.6183 37.1447 80.6389C37.8196 80.6595 38.6173 81.2294 39.5514 82.3624C38.3924 82.9255 36.9947 84.0379 35.3515 85.6928L20.3997 100.978L36.9197 117.788C37.9287 118.914 39.0469 119.69 40.2809 120.102C40.1718 120.177 39.9946 120.349 39.7491 120.61C39.5037 120.871 39.3128 121.042 39.1628 121.118C37.9287 121.901 36.6401 121.825 35.297 120.884Z" fill="#2CB4AE"/>
<path d="M51.4484 115.755C53.146 117.637 55.4982 118.577 58.505 118.577C61.5117 118.577 64.0002 117.637 65.9843 115.755C66.4343 116.016 66.6592 116.449 66.6592 117.053C66.6592 118.145 65.807 119.188 64.1093 120.184C62.4116 121.18 60.3867 121.681 58.0345 121.681C54.2983 121.681 51.2097 120.466 48.7689 118.042C46.3212 115.618 45.1008 112.205 45.1008 107.804C45.1008 103.402 46.4235 99.7283 49.0757 96.7757C51.7279 93.823 54.7142 92.3467 58.0345 92.3467C60.6867 92.3467 62.8344 93.2805 64.4775 95.1414C66.1206 97.0023 66.9388 99.1378 66.9388 101.541C66.9388 103.196 66.4615 104.446 65.5138 105.29C64.5593 106.135 63.0389 106.581 60.9526 106.616L48.9666 107.007V107.117C48.9189 110.997 49.7507 113.874 51.4484 115.755ZM60.7753 104.192C62.3435 104.082 63.1275 103.148 63.1275 101.397C63.1275 99.6459 62.6026 98.1833 61.5594 96.9954C60.5163 95.8143 59.1663 95.2169 57.53 95.2169C55.3278 95.2169 53.4392 96.089 51.8711 97.84C50.3029 99.591 49.3689 101.987 49.0689 105.029L60.7753 104.192Z" fill="#2CB4AE"/>
<path d="M78.1613 115.755C79.8589 117.637 82.2111 118.577 85.2179 118.577C88.2246 118.577 90.7131 117.637 92.6972 115.755C93.1472 116.016 93.3721 116.449 93.3721 117.053C93.3721 118.145 92.5199 119.188 90.8222 120.184C89.1245 121.18 87.0996 121.681 84.7474 121.681C81.0112 121.681 77.9226 120.466 75.4818 118.042C73.0341 115.618 71.8137 112.205 71.8137 107.804C71.8137 103.402 73.1364 99.7283 75.7886 96.7757C78.4408 93.823 81.4271 92.3467 84.7474 92.3467C87.3996 92.3467 89.5473 93.2805 91.1904 95.1414C92.8335 97.0023 93.6517 99.1378 93.6517 101.541C93.6517 103.196 93.1744 104.446 92.2267 105.29C91.2722 106.135 89.7518 106.581 87.6655 106.616L75.6795 107.007V107.117C75.6318 110.997 76.4636 113.874 78.1613 115.755ZM87.4814 104.192C89.0495 104.082 89.8336 103.148 89.8336 101.397C89.8336 99.6459 89.3086 98.1833 88.2655 96.9954C87.2223 95.8143 85.8724 95.2169 84.2361 95.2169C82.0339 95.2169 80.1453 96.089 78.5771 97.84C77.009 99.591 76.075 101.987 75.775 105.029L87.4814 104.192Z" fill="#2CB4AE"/>
<path d="M104.623 95.5603V96.4049C106.6 93.6994 109.273 92.3467 112.634 92.3467C115.995 92.3467 118.907 93.6239 121.368 96.1851C123.829 98.7395 125.063 102.345 125.063 106.986C125.063 111.628 123.822 115.233 121.341 117.788C118.859 120.342 115.948 121.626 112.607 121.626C109.266 121.626 106.607 120.424 104.63 118.014V131.548C104.63 132.414 105.059 132.997 105.918 133.299C105.319 134.391 104.534 134.934 103.566 134.934C101.923 134.934 101.105 133.842 101.105 131.665V95.7388C101.105 94.8736 100.675 94.2899 99.8164 93.9878C100.341 92.896 101.105 92.3535 102.114 92.3535C103.784 92.3467 104.623 93.4179 104.623 95.5603ZM112.464 118.234C114.966 118.234 117.066 117.231 118.764 115.22C120.461 113.208 121.313 110.461 121.313 106.986C121.313 103.512 120.461 100.751 118.764 98.7258C117.066 96.6933 114.966 95.677 112.464 95.677C108.993 95.677 106.375 97.2975 104.623 100.525V113.894C105.632 115.508 106.75 116.641 107.984 117.279C109.212 117.918 110.705 118.234 112.464 118.234Z" fill="#2CB4AE"/>
<path d="M133.292 106.615V84.6213C133.292 83.3029 132.767 82.4239 131.724 81.9707C132.692 80.6523 133.892 80 135.31 80C137.846 80 139.121 81.5587 139.121 84.6831V107.412C139.121 113.805 142.305 116.998 148.666 116.998C155.034 116.998 158.212 113.805 158.212 107.412V84.6213C158.212 83.3029 157.687 82.4239 156.643 81.9707C157.537 80.6523 158.737 80 160.23 80C162.766 80 164.041 81.5587 164.041 84.6831V106.622C164.041 111.36 162.786 115.061 160.291 117.732C157.789 120.403 153.937 121.736 148.728 121.736C143.519 121.736 139.646 120.39 137.11 117.705C134.56 115.013 133.292 111.319 133.292 106.615Z" fill="#E78755"/>
<path d="M176.526 80.4464H185.989C190.393 80.4464 194 81.5863 196.795 83.8592C199.598 86.132 200.995 89.2632 200.995 93.2528C200.995 97.2355 199.598 100.367 196.795 102.646C193.993 104.919 190.393 106.059 185.989 106.059H179.266V117.06C179.266 118.412 179.791 119.319 180.835 119.765C179.866 121.083 178.653 121.736 177.194 121.736C174.657 121.736 173.382 120.156 173.382 116.998V85.3561C173.382 84.0034 172.878 83.097 171.869 82.6506C172.919 81.1812 174.473 80.4464 176.526 80.4464ZM185.321 84.5664H179.273V101.994H185.321C188.266 101.994 190.53 101.198 192.098 99.5976C193.666 97.9977 194.45 95.8965 194.45 93.2803C194.45 90.664 193.666 88.5628 192.098 86.9629C190.523 85.363 188.266 84.5664 185.321 84.5664Z" fill="#E78755"/>
</svg>
