<svg width="161" height="81" viewBox="0 0 161 81" fill="none" xmlns="http://www.w3.org/2000/svg">
<path d="M104.792 46.0747C109.162 62.8049 105.488 53.038 91.5615 62.0903C85.2947 62.0903 85.7987 62.7867 85.7987 47.4492C85.7987 38.9886 92.9544 24.4885 110.363 24.4885C127.771 24.4885 109.666 37.7188 104.792 46.0747Z" fill="white"/>
<rect x="108.273" y="24.4885" width="27.8532" height="10.8627" fill="white"/>
<rect x="102.703" y="39.8077" width="25.0679" height="6.96329" fill="white"/>
<rect x="101.31" y="50.9493" width="20.8899" height="6.26697" fill="white"/>
<path d="M85.734 68.5686L85.991 45.3783L101.195 51.2168L85.734 68.5686Z" fill="white"/>
<path d="M148.66 24.4885C148.66 27.4434 147.585 31.1916 145.397 32.3666C135.43 37.7188 133.341 34.2371 127.77 34.2371C121.503 33.5408 131.73 34.456 129.641 32.3666C127.552 30.2772 126.378 27.4434 126.378 24.4885L137.519 24.4885H148.66Z" fill="white"/>
<path d="M137.519 39.8077C137.519 41.702 136.802 44.1049 135.341 44.8582C128.688 48.2895 127.294 46.0574 123.575 46.0574C119.392 45.611 126.219 46.1977 124.824 44.8582C123.429 43.5187 122.646 41.702 122.646 39.8077L130.082 39.8077H137.519Z" fill="white"/>
<path d="M129.164 50.9492C129.164 52.8436 128.644 55.3652 127.382 55.9998C120.808 59.3052 113.405 55.1272 110.363 55.1272C106.94 54.6808 119.918 57.3393 118.777 55.9998C117.636 54.6603 116.994 52.8436 116.994 50.9492L123.079 50.9492H129.164Z" fill="white"/>
<path d="M116.805 42.7261C115.818 42.9794 114.799 43.0077 113.838 42.8086C112.878 42.6094 112.006 42.1889 111.299 41.5844C110.593 40.9798 110.074 40.2099 109.788 39.3427C109.502 38.4755 109.459 37.5379 109.661 36.6128C109.864 35.6878 110.306 34.8039 110.949 34.0395C111.592 33.2751 112.416 32.6537 113.348 32.2304C114.279 31.8072 115.29 31.595 116.29 31.6129C117.29 31.6307 118.249 31.8779 119.081 32.3326L117.163 35.0964C116.796 34.896 116.374 34.787 115.933 34.7791C115.492 34.7713 115.046 34.8648 114.636 35.0514C114.225 35.238 113.862 35.5119 113.578 35.849C113.295 36.186 113.1 36.5756 113.01 36.9835C112.921 37.3913 112.94 37.8046 113.066 38.187C113.192 38.5693 113.421 38.9087 113.733 39.1753C114.044 39.4418 114.429 39.6272 114.852 39.715C115.275 39.8028 115.725 39.7903 116.16 39.6786L116.805 42.7261Z" fill="white"/>
<path d="M110.406 54.2506C109.418 54.5039 108.399 54.5322 107.439 54.333C106.478 54.1339 105.606 53.7134 104.9 53.1088C104.193 52.5043 103.674 51.7343 103.389 50.8671C103.103 49.9999 103.059 49.0623 103.262 48.1373C103.464 47.2122 103.907 46.3284 104.55 45.564C105.193 44.7995 106.017 44.1782 106.948 43.7549C107.88 43.3316 108.89 43.1195 109.89 43.1373C110.891 43.1551 111.849 43.4023 112.682 43.857L110.764 46.6209C110.397 46.4204 109.974 46.3114 109.533 46.3036C109.092 46.2957 108.647 46.3892 108.236 46.5758C107.825 46.7624 107.462 47.0364 107.179 47.3734C106.895 47.7104 106.7 48.1001 106.611 48.5079C106.522 48.9157 106.541 49.3291 106.667 49.7114C106.793 50.0937 107.022 50.4332 107.333 50.6997C107.645 50.9662 108.029 51.1516 108.452 51.2394C108.876 51.3272 109.325 51.3147 109.761 51.2031L110.406 54.2506Z" fill="white"/>
<path d="M56.2103 46.0776C51.8401 62.8085 55.514 53.0412 69.4415 62.0941C75.7086 62.0942 75.2046 62.7905 75.2044 47.4523C75.2043 38.9913 68.0482 24.4904 50.639 24.4902C33.2299 24.4901 51.3356 37.7212 56.2103 46.0776Z" fill="white"/>
<rect width="24.6202" height="12.8025" transform="matrix(-1.13137 -1.12653e-05 8.44002e-06 0.848528 52.7285 24.4905)" fill="white"/>
<rect width="22.1582" height="8.20674" transform="matrix(-1.13137 -1.12653e-05 8.44002e-06 0.848528 58.299 39.8103)" fill="white"/>
<rect width="18.4651" height="7.38606" transform="matrix(-1.13137 -1.12653e-05 8.44002e-06 0.848528 59.6918 50.9519)" fill="white"/>
<path d="M75.2696 68.5725L75.0123 45.381L59.8075 51.2196L75.2696 68.5725Z" fill="white"/>
<path d="M12.3396 24.4896C12.3396 27.4446 13.4147 31.193 15.603 32.3681C25.5705 37.7207 27.6596 34.2389 33.2305 34.2389C39.4978 33.5426 29.2705 34.4577 31.3599 32.3683C33.4494 30.2788 34.6233 27.4448 34.6232 24.4898L23.4814 24.4897L12.3396 24.4896Z" fill="white"/>
<path d="M23.4809 39.8102C23.4809 41.7046 24.1986 44.1076 25.6592 44.861C32.3125 48.2924 33.707 46.0603 37.4256 46.0603C41.609 45.6139 34.7823 46.2006 36.177 44.8611C37.5717 43.5215 38.3553 41.7047 38.3552 39.8103L30.9181 39.8102L23.4809 39.8102Z" fill="white"/>
<path d="M31.8375 50.9517C31.8375 52.8461 32.3577 55.3679 33.6198 56.0025C40.1939 59.3081 47.5972 55.13 50.6397 55.1301C54.0625 54.6837 41.0841 57.3421 42.2253 56.0026C43.3664 54.663 44.0075 52.8462 44.0075 50.9518L37.9225 50.9517L31.8375 50.9517Z" fill="white"/>
<path d="M44.1958 42.7281C45.1834 42.9814 46.2026 43.0098 47.1631 42.8106C48.1236 42.6115 48.9957 42.191 49.7022 41.5864C50.4087 40.9818 50.9278 40.2118 51.2135 39.3446C51.4992 38.4773 51.5427 37.5397 51.3401 36.6146C51.1376 35.6895 50.6952 34.8056 50.0521 34.0411C49.4091 33.2767 48.5853 32.6553 47.6537 32.232C46.7221 31.8086 45.7114 31.5965 44.7112 31.6143C43.711 31.6321 42.7522 31.8793 41.9196 32.334L43.8376 35.098C44.2047 34.8976 44.6274 34.7886 45.0684 34.7807C45.5093 34.7729 45.9549 34.8664 46.3656 35.053C46.7764 35.2397 47.1396 35.5136 47.423 35.8506C47.7065 36.1877 47.9016 36.5774 47.9909 36.9852C48.0802 37.393 48.061 37.8064 47.9351 38.1888C47.8091 38.5711 47.5803 38.9106 47.2688 39.1771C46.9573 39.4437 46.5728 39.629 46.1494 39.7168C45.7259 39.8046 45.2766 39.7922 44.8412 39.6805L44.1958 42.7281Z" fill="white"/>
<path d="M50.5963 54.2532C51.5839 54.5065 52.6031 54.5348 53.5636 54.3357C54.524 54.1365 55.3962 53.7161 56.1027 53.1115C56.8092 52.5069 57.3283 51.7369 57.614 50.8697C57.8997 50.0024 57.9432 49.0648 57.7406 48.1397C57.538 47.2146 57.0956 46.3307 56.4526 45.5662C55.8096 44.8018 54.9857 44.1804 54.0541 43.757C53.1225 43.3337 52.1119 43.1216 51.1117 43.1394C50.1115 43.1572 49.1526 43.4044 48.32 43.8591L50.2381 46.6231C50.6052 46.4226 51.0279 46.3137 51.4688 46.3058C51.9098 46.298 52.3554 46.3915 52.7661 46.5781C53.1768 46.7647 53.54 47.0387 53.8235 47.3757C54.107 47.7128 54.302 48.1024 54.3913 48.5103C54.4807 48.9181 54.4615 49.3315 54.3355 49.7139C54.2096 50.0962 53.9807 50.4357 53.6692 50.7022C53.3577 50.9687 52.9733 51.1541 52.5498 51.2419C52.1264 51.3297 51.677 51.3172 51.2416 51.2056L50.5963 54.2532Z" fill="white"/>
</svg>
