<svg width="245" height="75" viewBox="0 0 245 75" fill="none" xmlns="http://www.w3.org/2000/svg">
<rect width="245" height="75" rx="30" fill="black"/>
<path d="M56.2618 35.1955C56.2418 31.7529 57.789 29.1583 60.9134 27.2451C59.166 24.7212 56.5222 23.333 53.0372 23.0655C49.7375 22.803 46.1273 25.0039 44.8054 25.0039C43.4084 25.0039 40.2139 23.1563 37.7003 23.1563C32.5129 23.2371 27 27.3259 27 35.6448C27 38.1031 27.4456 40.6422 28.3369 43.257C29.5286 46.6996 33.8247 55.1347 38.3062 54.9984C40.6495 54.9428 42.3069 53.3225 45.3562 53.3225C48.3154 53.3225 49.8476 54.9984 52.4614 54.9984C56.9828 54.9327 60.8684 47.265 62 43.8123C55.9363 40.9299 56.2618 35.3722 56.2618 35.1955ZM50.9993 19.7995C53.5379 16.7607 53.3076 13.9944 53.2325 13C50.9893 13.1312 48.3956 14.5396 46.9185 16.271C45.2911 18.1286 44.3348 20.4254 44.5401 23.015C46.9635 23.2018 49.1767 21.9448 50.9993 19.7995Z" fill="white"/>
<path d="M87.4277 44L85.6455 39.0439H78.8218L77.0762 44H74L80.6772 26.0801H83.8511L90.5283 44H87.4277ZM84.8765 36.5293L83.2041 31.6709C83.082 31.3454 82.9111 30.8327 82.6914 30.1328C82.4798 29.4329 82.3333 28.9202 82.252 28.5947C82.0322 29.5957 81.7108 30.6903 81.2876 31.8784L79.6763 36.5293H84.8765ZM99.4272 44.2441C97.7183 44.2441 96.3918 43.6297 95.4478 42.4009H95.2769C95.3908 43.5402 95.4478 44.2319 95.4478 44.4761V50.0059H92.5791V30.499H94.8984C94.9635 30.7513 95.0978 31.3535 95.3013 32.3057H95.4478C96.3429 30.9385 97.6857 30.2549 99.4761 30.2549C101.161 30.2549 102.471 30.8652 103.407 32.0859C104.351 33.3066 104.823 35.0197 104.823 37.2251C104.823 39.4305 104.343 41.1517 103.382 42.3887C102.43 43.6257 101.112 44.2441 99.4272 44.2441ZM98.7314 32.5986C97.5921 32.5986 96.758 32.9323 96.229 33.5996C95.7082 34.2669 95.4478 35.333 95.4478 36.7979V37.2251C95.4478 38.869 95.7082 40.0612 96.229 40.8018C96.7498 41.5342 97.6003 41.9004 98.7803 41.9004C99.7731 41.9004 100.538 41.4935 101.075 40.6797C101.612 39.8659 101.881 38.7062 101.881 37.2007C101.881 35.687 101.612 34.5436 101.075 33.7705C100.546 32.9893 99.765 32.5986 98.7314 32.5986ZM115.003 44.2441C113.294 44.2441 111.968 43.6297 111.024 42.4009H110.853C110.967 43.5402 111.024 44.2319 111.024 44.4761V50.0059H108.155V30.499H110.475C110.54 30.7513 110.674 31.3535 110.877 32.3057H111.024C111.919 30.9385 113.262 30.2549 115.052 30.2549C116.737 30.2549 118.047 30.8652 118.983 32.0859C119.927 33.3066 120.399 35.0197 120.399 37.2251C120.399 39.4305 119.919 41.1517 118.958 42.3887C118.006 43.6257 116.688 44.2441 115.003 44.2441ZM114.308 32.5986C113.168 32.5986 112.334 32.9323 111.805 33.5996C111.284 34.2669 111.024 35.333 111.024 36.7979V37.2251C111.024 38.869 111.284 40.0612 111.805 40.8018C112.326 41.5342 113.176 41.9004 114.356 41.9004C115.349 41.9004 116.114 41.4935 116.651 40.6797C117.188 39.8659 117.457 38.7062 117.457 37.2007C117.457 35.687 117.188 34.5436 116.651 33.7705C116.122 32.9893 115.341 32.5986 114.308 32.5986ZM126.6 44H123.731V25.0059H126.6V44ZM136.61 44.2441C134.51 44.2441 132.866 43.6338 131.678 42.4131C130.498 41.1842 129.908 39.4956 129.908 37.3472C129.908 35.1418 130.458 33.4084 131.556 32.147C132.655 30.8856 134.164 30.2549 136.085 30.2549C137.867 30.2549 139.275 30.7961 140.309 31.8784C141.342 32.9608 141.859 34.45 141.859 36.3462V37.8965H132.862C132.903 39.2067 133.257 40.2158 133.924 40.9238C134.592 41.6237 135.532 41.9736 136.744 41.9736C137.542 41.9736 138.282 41.9004 138.966 41.7539C139.658 41.5993 140.398 41.347 141.188 40.9971V43.3286C140.488 43.6623 139.78 43.8983 139.063 44.0366C138.347 44.175 137.529 44.2441 136.61 44.2441ZM136.085 32.4277C135.174 32.4277 134.441 32.7166 133.888 33.2944C133.342 33.8722 133.017 34.7145 132.911 35.8213H139.039C139.023 34.7064 138.754 33.8641 138.233 33.2944C137.713 32.7166 136.996 32.4277 136.085 32.4277ZM162.208 39.1538C162.208 40.7407 161.634 41.9858 160.487 42.8892C159.339 43.7925 157.757 44.2441 155.738 44.2441C153.72 44.2441 152.068 43.9308 150.782 43.3042V40.5454C151.596 40.9279 152.459 41.229 153.37 41.4487C154.29 41.6685 155.144 41.7783 155.934 41.7783C157.089 41.7783 157.94 41.5586 158.485 41.1191C159.038 40.6797 159.315 40.0897 159.315 39.3491C159.315 38.6818 159.063 38.1162 158.558 37.6523C158.054 37.1885 157.012 36.6392 155.433 36.0044C153.806 35.3452 152.658 34.5924 151.991 33.7461C151.323 32.8997 150.99 31.8825 150.99 30.6943C150.99 29.2051 151.519 28.0332 152.577 27.1787C153.635 26.3242 155.055 25.897 156.837 25.897C158.546 25.897 160.247 26.2713 161.939 27.02L161.012 29.4004C159.425 28.7331 158.009 28.3994 156.764 28.3994C155.82 28.3994 155.104 28.6069 154.615 29.022C154.127 29.4289 153.883 29.9701 153.883 30.6455C153.883 31.1094 153.98 31.5081 154.176 31.8418C154.371 32.1673 154.693 32.4766 155.14 32.7695C155.588 33.0625 156.393 33.4491 157.557 33.9292C158.867 34.4744 159.828 34.9831 160.438 35.4551C161.048 35.9271 161.496 36.4601 161.781 37.0542C162.066 37.6483 162.208 38.3481 162.208 39.1538ZM170.387 41.9248C171.087 41.9248 171.786 41.8149 172.486 41.5952V43.7559C172.169 43.8942 171.758 44.0081 171.253 44.0977C170.757 44.1953 170.24 44.2441 169.703 44.2441C166.985 44.2441 165.626 42.8118 165.626 39.9473V32.6719H163.783V31.4023L165.76 30.3525L166.737 27.4961H168.507V30.499H172.352V32.6719H168.507V39.8984C168.507 40.5902 168.678 41.1029 169.02 41.4365C169.369 41.762 169.825 41.9248 170.387 41.9248ZM187.171 37.2251C187.171 39.4305 186.606 41.1517 185.475 42.3887C184.343 43.6257 182.769 44.2441 180.75 44.2441C179.489 44.2441 178.374 43.9593 177.406 43.3896C176.437 42.82 175.693 42.0021 175.172 40.936C174.651 39.87 174.391 38.633 174.391 37.2251C174.391 35.036 174.952 33.327 176.075 32.0981C177.198 30.8693 178.781 30.2549 180.824 30.2549C182.777 30.2549 184.323 30.8856 185.462 32.147C186.602 33.4002 187.171 35.0929 187.171 37.2251ZM177.345 37.2251C177.345 40.342 178.496 41.9004 180.799 41.9004C183.078 41.9004 184.217 40.342 184.217 37.2251C184.217 34.1408 183.07 32.5986 180.775 32.5986C179.57 32.5986 178.696 32.9974 178.15 33.7949C177.613 34.5924 177.345 35.7358 177.345 37.2251ZM197.328 30.2549C197.905 30.2549 198.382 30.2956 198.756 30.377L198.475 33.0503C198.068 32.9526 197.645 32.9038 197.206 32.9038C196.058 32.9038 195.126 33.2782 194.41 34.0269C193.702 34.7756 193.348 35.748 193.348 36.9443V44H190.479V30.499H192.726L193.104 32.8794H193.25C193.698 32.0737 194.28 31.4349 194.996 30.9629C195.72 30.4909 196.498 30.2549 197.328 30.2549ZM207.167 44.2441C205.067 44.2441 203.423 43.6338 202.235 42.4131C201.055 41.1842 200.465 39.4956 200.465 37.3472C200.465 35.1418 201.014 33.4084 202.113 32.147C203.211 30.8856 204.721 30.2549 206.642 30.2549C208.424 30.2549 209.832 30.7961 210.865 31.8784C211.899 32.9608 212.416 34.45 212.416 36.3462V37.8965H203.419C203.46 39.2067 203.814 40.2158 204.481 40.9238C205.148 41.6237 206.088 41.9736 207.301 41.9736C208.098 41.9736 208.839 41.9004 209.522 41.7539C210.214 41.5993 210.955 41.347 211.744 40.9971V43.3286C211.044 43.6623 210.336 43.8983 209.62 44.0366C208.904 44.175 208.086 44.2441 207.167 44.2441ZM206.642 32.4277C205.73 32.4277 204.998 32.7166 204.444 33.2944C203.899 33.8722 203.574 34.7145 203.468 35.8213H209.596C209.579 34.7064 209.311 33.8641 208.79 33.2944C208.269 32.7166 207.553 32.4277 206.642 32.4277Z" fill="white"/>
</svg>
