<svg width="366" height="348" viewBox="0 0 366 348" fill="none" xmlns="http://www.w3.org/2000/svg">
<path d="M144.946 230.029C267.316 208.954 301.073 249.395 326.286 209.157C340.226 186.908 351.192 121.895 297.556 103.356C248.289 90.1284 199.459 128.02 204.808 100.24C210.155 72.4596 231.689 27.8731 191.131 39.5086C150.572 51.1434 10.3726 163.156 32.9566 194.463C49.8694 217.907 104.841 195.169 73.1049 232.943C51.472 258.69 45.3726 278.021 65.6422 281.295C86.85 284.723 120.022 242.965 144.946 230.029Z" fill="#54B53E" fill-opacity="0.2"/>
<circle cx="76.1083" cy="58.4914" r="2.49135" transform="rotate(-180 76.1083 58.4914)" fill="#479934"/>
<circle cx="148.492" cy="279.491" r="2.49135" transform="rotate(-180 148.492 279.491)" fill="#54B53E"/>
<circle cx="255.714" cy="281.921" r="2.49135" transform="rotate(-180 255.714 281.921)" fill="#479934"/>
<circle cx="35.6715" cy="194.943" r="4.67129" transform="rotate(-180 35.6715 194.943)" fill="#479934"/>
<circle cx="305.36" cy="56.3599" r="4.35987" transform="rotate(-180 305.36 56.3599)" fill="#54B53E"/>
</svg>
