<svg width="205" height="205" viewBox="0 0 205 205" fill="none" xmlns="http://www.w3.org/2000/svg">
<path d="M22.8283 35.2756H10.455C4.69059 35.2756 0 39.9662 0 45.7307V159.272C0 165.036 4.69059 169.727 10.455 169.727H22.8279C28.5928 169.727 33.2825 165.036 33.2825 159.272V45.7307C33.2829 39.9662 28.5932 35.2756 22.8283 35.2756Z" fill="#6BB55B"/>
<path d="M65.1814 35.2749H52.8085C47.0437 35.2749 42.3535 39.9651 42.3535 45.7299V112.55C42.3535 118.315 47.0441 123.005 52.8085 123.005H65.1814C70.9463 123.005 75.636 118.315 75.636 112.55V45.7299C75.636 39.9655 70.9459 35.2749 65.1814 35.2749Z" fill="#6BB55B"/>
<path d="M117.987 45.7315V112.551C117.987 118.316 113.299 123.005 107.534 123.005H95.1619C89.3963 123.005 84.7041 118.316 84.7041 112.551V45.7315C84.7041 39.9659 89.3967 35.2737 95.1619 35.2737H107.534C113.299 35.2737 117.987 39.9663 117.987 45.7315Z" fill="#6BB55B"/>
<path d="M150.943 35.2749H138.57C132.805 35.2749 128.115 39.9651 128.115 45.7299V112.55C128.115 118.315 132.806 123.005 138.57 123.005H150.943C156.708 123.005 161.398 118.315 161.398 112.55V45.7299C161.398 39.9655 156.708 35.2749 150.943 35.2749Z" fill="#479934"/>
<path d="M194.545 35.2749H182.172C176.408 35.2749 171.718 39.9651 171.718 45.7299V159.271C171.718 165.036 176.408 169.726 182.172 169.726H194.545C200.31 169.726 205 165.036 205 159.271V45.7299C205 39.9655 200.31 35.2749 194.545 35.2749Z" fill="#479934"/>
<path d="M51.853 132.318C51.2284 131.913 50.5358 131.709 49.779 131.709C49.2545 131.709 48.8341 131.809 48.5138 132.013L42.7481 135.509C41.9033 136.001 41.4829 136.774 41.4829 137.823C41.4829 138.52 41.6831 139.148 42.0915 139.701C42.4999 140.253 43.0084 140.53 43.621 140.53C44.0014 140.53 44.3657 140.414 44.7141 140.181L45.9793 139.393V161.626C45.9793 162.294 46.3156 162.811 46.9843 163.175C47.6529 163.539 48.4537 163.72 49.3866 163.72C50.3195 163.72 51.1203 163.539 51.789 163.175C52.4576 162.811 52.794 162.294 52.794 161.626V133.847C52.7944 133.235 52.4821 132.726 51.853 132.318Z" fill="#6BB55B"/>
<path d="M74.5308 157.782H63.0119V157.385C63.0119 156.677 63.4844 155.904 64.4293 155.067C65.3742 154.226 66.5113 153.365 67.8406 152.481C69.1739 151.6 70.4952 150.627 71.8125 149.57C73.1298 148.509 74.2549 147.199 75.1918 145.638C76.1287 144.076 76.5972 142.415 76.5972 140.649C76.5972 137.938 75.5722 135.784 73.5262 134.191C71.4802 132.594 69.0939 131.793 66.3756 131.793C63.737 131.793 61.4428 132.557 59.4853 134.087C57.5273 135.616 56.5504 137.646 56.5504 140.181C56.5504 142.539 57.5554 143.716 59.5693 143.716C60.6304 143.716 61.4832 143.46 62.1318 142.948C62.7765 142.435 63.1008 141.831 63.1008 141.134C63.1008 139.957 63.4131 139.096 64.0297 138.551C64.6503 138.007 65.4471 137.735 66.42 137.735C67.5411 137.735 68.382 138.051 68.9425 138.683C69.5031 139.316 69.7833 140.045 69.7833 140.87C69.7833 141.899 69.3029 142.96 68.3459 144.049C67.385 145.138 66.2158 146.183 64.8265 147.184L60.8186 150.187C59.4933 151.184 58.3642 152.309 57.4272 153.57C56.4943 154.831 56.0259 156.088 56.0259 157.35V161.61C56.0259 162.198 56.3542 162.695 57.0108 163.107C57.6635 163.516 58.3281 163.72 58.9968 163.72H74.5436C75.0961 163.72 75.5766 163.416 75.985 162.803C76.3934 162.194 76.5976 161.494 76.5976 160.709C76.5976 159.92 76.3934 159.236 75.981 158.655C75.5714 158.074 75.0873 157.782 74.5308 157.782Z" fill="#6BB55B"/>
<path d="M87.8873 132.318C87.2587 131.913 86.57 131.709 85.8133 131.709C85.2888 131.709 84.8644 131.809 84.5441 132.013L78.7784 135.509C77.9336 136.001 77.5132 136.774 77.5132 137.823C77.5132 138.52 77.7174 139.148 78.1258 139.701C78.5302 140.253 79.0427 140.53 79.6513 140.53C80.0316 140.53 80.396 140.414 80.7443 140.181L82.0136 139.393V161.626C82.0136 162.294 82.3459 162.811 83.0146 163.175C83.6872 163.539 84.488 163.72 85.4169 163.72C86.3498 163.72 87.1506 163.539 87.8193 163.175C88.4919 162.811 88.8242 162.294 88.8242 161.626V133.847C88.8246 133.235 88.5123 132.726 87.8873 132.318Z" fill="#6BB55B"/>
<path d="M110.561 157.782H99.0461V157.385C99.0461 156.677 99.5186 155.904 100.459 155.067C100.74 154.819 101.036 154.567 101.348 154.318C102.093 153.714 102.934 153.105 103.875 152.481C105.204 151.6 106.529 150.627 107.843 149.57C109.16 148.509 110.289 147.199 111.222 145.638C112.159 144.076 112.627 142.415 112.627 140.649C112.627 137.938 111.606 135.784 109.556 134.191C107.51 132.594 105.128 131.793 102.406 131.793C102.045 131.793 101.693 131.809 101.349 131.837C99.1506 132.017 97.2047 132.766 95.515 134.087C93.5611 135.616 92.5802 137.646 92.5802 140.181C92.5802 142.539 93.5852 143.716 95.5991 143.716C96.6602 143.716 97.517 143.46 98.1616 142.948C98.8103 142.435 99.1346 141.831 99.1346 141.134C99.1346 139.957 99.4429 139.096 100.063 138.551C100.428 138.227 100.856 138.003 101.349 137.875C101.685 137.779 102.053 137.735 102.454 137.735C103.575 137.735 104.412 138.051 104.976 138.683C105.533 139.316 105.817 140.045 105.817 140.87C105.817 141.899 105.337 142.96 104.376 144.049C103.535 145.006 102.526 145.931 101.349 146.823C101.189 146.944 101.028 147.064 100.86 147.184L96.8483 150.187C95.5231 151.184 94.3939 152.309 93.461 153.57C92.5241 154.831 92.0557 156.088 92.0557 157.35V161.61C92.0557 162.198 92.384 162.695 93.0406 163.107C93.6973 163.516 94.3579 163.72 95.0266 163.72H110.577C111.13 163.72 111.61 163.416 112.015 162.803C112.423 162.194 112.627 161.494 112.627 160.709C112.627 159.92 112.423 159.236 112.015 158.655C111.602 158.074 111.117 157.782 110.561 157.782Z" fill="#6BB55B"/>
<path d="M133.143 157.782H121.624V157.385C121.624 156.677 122.096 155.904 123.041 155.067C123.986 154.226 125.123 153.366 126.452 152.481C127.786 151.6 129.107 150.627 130.424 149.57C131.742 148.509 132.867 147.2 133.804 145.638C134.741 144.076 135.209 142.415 135.209 140.649C135.209 137.938 134.184 135.784 132.138 134.191C130.088 132.594 127.706 131.793 124.987 131.793C122.349 131.793 120.051 132.558 118.097 134.087C116.139 135.617 115.162 137.647 115.162 140.181C115.162 142.539 116.167 143.717 118.177 143.717C119.242 143.717 120.095 143.46 120.744 142.948C121.388 142.435 121.713 141.831 121.713 141.134C121.713 139.957 122.025 139.096 122.642 138.551C123.262 138.007 124.059 137.735 125.032 137.735C126.153 137.735 126.994 138.051 127.554 138.684C128.115 139.316 128.395 140.045 128.395 140.87C128.395 141.899 127.915 142.96 126.958 144.049C125.997 145.138 124.828 146.183 123.438 147.184L119.43 150.187C118.105 151.184 116.976 152.309 116.039 153.57C115.106 154.831 114.638 156.089 114.638 157.35V161.61C114.638 162.199 114.966 162.695 115.619 163.107C116.275 163.516 116.936 163.72 117.609 163.72H133.155C133.708 163.72 134.188 163.416 134.597 162.803C135.005 162.195 135.209 161.494 135.209 160.709C135.209 159.92 135.005 159.236 134.593 158.655C134.179 158.074 133.699 157.782 133.143 157.782Z" fill="#479934"/>
<path d="M146.499 132.318C145.871 131.913 145.178 131.709 144.421 131.709C143.897 131.709 143.476 131.809 143.156 132.013L137.39 135.509C136.545 136.001 136.125 136.774 136.125 137.823C136.125 138.52 136.329 139.148 136.738 139.701C137.142 140.253 137.654 140.53 138.263 140.53C138.643 140.53 139.008 140.414 139.356 140.181L140.621 139.393V161.626C140.621 162.294 140.958 162.811 141.626 163.175C142.295 163.539 143.096 163.72 144.029 163.72C144.962 163.72 145.762 163.539 146.431 163.175C147.1 162.811 147.436 162.294 147.436 161.626V133.847C147.435 133.235 147.123 132.726 146.499 132.318Z" fill="#479934"/>
<path d="M159.947 132.318C159.323 131.913 158.63 131.709 157.873 131.709C157.349 131.709 156.928 131.809 156.608 132.013L150.842 135.509C149.998 136.001 149.577 136.774 149.577 137.823C149.577 138.52 149.777 139.148 150.186 139.701C150.594 140.253 151.103 140.53 151.715 140.53C152.096 140.53 152.46 140.414 152.808 140.181L154.074 139.393V161.626C154.074 162.294 154.41 162.811 155.079 163.175C155.747 163.539 156.548 163.72 157.481 163.72C158.414 163.72 159.215 163.539 159.883 163.175C160.552 162.811 160.888 162.294 160.888 161.626V133.847C160.888 133.235 160.576 132.726 159.947 132.318Z" fill="#479934"/>
<path d="M117.988 45.7315V112.551C117.988 118.316 113.299 123.005 107.534 123.005H101.348V35.2737H107.534C113.299 35.2737 117.988 39.9663 117.988 45.7315Z" fill="#479934"/>
<path d="M112.014 158.655C112.423 159.235 112.627 159.92 112.627 160.709C112.627 161.493 112.423 162.194 112.014 162.803C111.61 163.415 111.129 163.72 110.577 163.72H101.348V157.782H110.561C111.117 157.782 111.601 158.074 112.014 158.655Z" fill="#479934"/>
<path d="M112.627 140.649C112.627 142.415 112.158 144.077 111.221 145.638C110.288 147.2 109.159 148.509 107.842 149.57C106.529 150.627 105.203 151.6 103.874 152.481C102.933 153.106 102.092 153.714 101.348 154.319V146.824C102.525 145.931 103.534 145.006 104.375 144.049C105.336 142.96 105.816 141.899 105.816 140.87C105.816 140.045 105.532 139.317 104.975 138.684C104.411 138.051 103.574 137.735 102.453 137.735C102.052 137.735 101.684 137.779 101.348 137.875V131.838C101.692 131.81 102.044 131.794 102.405 131.794C105.127 131.794 107.51 132.594 109.555 134.192C111.605 135.785 112.627 137.939 112.627 140.649Z" fill="#479934"/>
</svg>
